# MagicaVoxel @ Ephtracy

# group
o 

# material
mtllib Pot.mtl
usemtl palette

# normals
vn -1 0 0
vn 1 0 0
vn 0 0 1
vn 0 0 -1
vn 0 -1 0
vn 0 1 0

# texcoords
vt 0.232422 0.5
vt 0.396484 0.5
vt 0.537109 0.5

# verts
v -0.5 0.5 0.4
v -0.5 0.5 -0.3
v -0.5 0.6 0.6
v -0.5 0.6 0.5
v -0.5 0.6 0.4
v -0.5 0.6 -0.3
v -0.5 0.6 -0.4
v -0.5 0.6 -0.5
v -0.5 1 0.6
v -0.5 1 0.5
v -0.5 1 -0.4
v -0.5 1 -0.5
v -0.4 0.2 0.3
v -0.4 0.2 -0.2
v -0.4 0.3 0.5
v -0.4 0.3 0.4
v -0.4 0.3 0.3
v -0.4 0.3 -0.2
v -0.4 0.3 -0.3
v -0.4 0.3 -0.4
v -0.4 0.5 0.4
v -0.4 0.5 -0.3
v -0.4 0.6 0.5
v -0.4 0.6 0.4
v -0.4 0.6 -0.3
v -0.4 0.6 -0.4
v -0.3 0 0.4
v -0.3 0 -0.3
v -0.3 0.1 0.3
v -0.3 0.1 -0.2
v -0.3 0.2 0.3
v -0.3 0.2 -0.2
v -0.3 0.3 0.4
v -0.3 0.3 0.3
v -0.3 0.3 -0.2
v -0.3 0.3 -0.3
v -0.3 0.5 0.6
v -0.3 0.5 0.5
v -0.3 0.5 -0.4
v -0.3 0.5 -0.5
v -0.3 0.6 0.6
v -0.3 0.6 0.5
v -0.3 0.6 -0.4
v -0.3 0.6 -0.5
v -0.2 0.2 0.5
v -0.2 0.2 0.4
v -0.2 0.2 -0.3
v -0.2 0.2 -0.4
v -0.2 0.3 0.5
v -0.2 0.3 0.4
v -0.2 0.3 -0.3
v -0.2 0.3 -0.4
v 0.2 0.1 0.2
v 0.2 0.1 -0.1
v 0.2 0.2 0.2
v 0.2 0.2 -0.1
v 0.3 0.2 0.3
v 0.3 0.2 -0.2
v 0.3 0.4 0.3
v 0.3 0.4 -0.2
v 0.4 0.4 0.4
v 0.4 0.4 -0.3
v 0.4 0.6 0.4
v 0.4 0.6 -0.3
v 0.5 0.9 0.5
v 0.5 0.9 -0.4
v 0.5 1 0.5
v 0.5 1 -0.4
v -0.4 0.9 0.5
v -0.4 0.9 -0.4
v -0.4 1 0.5
v -0.4 1 -0.4
v -0.3 0.4 0.4
v -0.3 0.4 -0.3
v -0.3 0.6 0.4
v -0.3 0.6 -0.3
v -0.2 0.2 0.3
v -0.2 0.2 -0.2
v -0.2 0.4 0.3
v -0.2 0.4 -0.2
v -0.1 0.1 0.2
v -0.1 0.1 -0.1
v -0.1 0.2 0.2
v -0.1 0.2 -0.1
v 0.3 0.2 0.5
v 0.3 0.2 0.4
v 0.3 0.2 -0.3
v 0.3 0.2 -0.4
v 0.3 0.3 0.5
v 0.3 0.3 0.4
v 0.3 0.3 -0.3
v 0.3 0.3 -0.4
v 0.4 0 0.4
v 0.4 0 -0.3
v 0.4 0.1 0.3
v 0.4 0.1 -0.2
v 0.4 0.2 0.3
v 0.4 0.2 -0.2
v 0.4 0.3 0.4
v 0.4 0.3 0.3
v 0.4 0.3 -0.2
v 0.4 0.3 -0.3
v 0.4 0.5 0.6
v 0.4 0.5 0.5
v 0.4 0.5 -0.4
v 0.4 0.5 -0.5
v 0.4 0.6 0.6
v 0.4 0.6 0.5
v 0.4 0.6 -0.4
v 0.4 0.6 -0.5
v 0.5 0.2 0.3
v 0.5 0.2 -0.2
v 0.5 0.3 0.5
v 0.5 0.3 0.4
v 0.5 0.3 0.3
v 0.5 0.3 -0.2
v 0.5 0.3 -0.3
v 0.5 0.3 -0.4
v 0.5 0.5 0.4
v 0.5 0.5 -0.3
v 0.5 0.6 0.5
v 0.5 0.6 0.4
v 0.5 0.6 -0.3
v 0.5 0.6 -0.4
v 0.6 0.5 0.4
v 0.6 0.5 -0.3
v 0.6 0.6 0.6
v 0.6 0.6 0.5
v 0.6 0.6 0.4
v 0.6 0.6 -0.3
v 0.6 0.6 -0.4
v 0.6 0.6 -0.5
v 0.6 1 0.6
v 0.6 1 0.5
v 0.6 1 -0.4
v 0.6 1 -0.5
v -0.5 0.6 0.6
v -0.5 1 0.6
v -0.4 0.6 0.6
v -0.4 1 0.6
v -0.3 0.5 0.6
v -0.3 0.6 0.6
v 0.4 0.5 0.6
v 0.4 0.6 0.6
v 0.5 0.6 0.6
v 0.5 1 0.6
v 0.6 0.6 0.6
v 0.6 1 0.6
v -0.4 0.3 0.5
v -0.4 0.6 0.5
v -0.3 0.3 0.5
v -0.3 0.5 0.5
v -0.3 0.6 0.5
v -0.2 0.2 0.5
v -0.2 0.3 0.5
v 0.3 0.2 0.5
v 0.3 0.3 0.5
v 0.4 0.3 0.5
v 0.4 0.5 0.5
v 0.4 0.6 0.5
v 0.5 0.3 0.5
v 0.5 0.6 0.5
v -0.5 0.5 0.4
v -0.5 0.6 0.4
v -0.4 0.5 0.4
v -0.4 0.6 0.4
v -0.3 0 0.4
v -0.3 0.3 0.4
v -0.2 0.1 0.4
v -0.2 0.2 0.4
v -0.2 0.3 0.4
v 0.3 0.1 0.4
v 0.3 0.2 0.4
v 0.3 0.3 0.4
v 0.4 0 0.4
v 0.4 0.3 0.4
v 0.5 0.5 0.4
v 0.5 0.6 0.4
v 0.6 0.5 0.4
v 0.6 0.6 0.4
v -0.4 0.2 0.3
v -0.4 0.3 0.3
v -0.3 0.2 0.3
v -0.3 0.3 0.3
v 0.4 0.2 0.3
v 0.4 0.3 0.3
v 0.5 0.2 0.3
v 0.5 0.3 0.3
v -0.1 0.1 -0.1
v -0.1 0.2 -0.1
v 0.2 0.1 -0.1
v 0.2 0.2 -0.1
v -0.2 0.2 -0.2
v -0.2 0.4 -0.2
v 0.3 0.2 -0.2
v 0.3 0.4 -0.2
v -0.3 0.4 -0.3
v -0.3 0.6 -0.3
v 0.4 0.4 -0.3
v 0.4 0.6 -0.3
v -0.4 0.9 -0.4
v -0.4 1 -0.4
v 0.5 0.9 -0.4
v 0.5 1 -0.4
v -0.4 0.9 0.5
v -0.4 1 0.5
v 0.5 0.9 0.5
v 0.5 1 0.5
v -0.3 0.4 0.4
v -0.3 0.6 0.4
v 0.4 0.4 0.4
v 0.4 0.6 0.4
v -0.2 0.2 0.3
v -0.2 0.4 0.3
v 0.3 0.2 0.3
v 0.3 0.4 0.3
v -0.1 0.1 0.2
v -0.1 0.2 0.2
v 0.2 0.1 0.2
v 0.2 0.2 0.2
v -0.4 0.2 -0.2
v -0.4 0.3 -0.2
v -0.3 0.2 -0.2
v -0.3 0.3 -0.2
v 0.4 0.2 -0.2
v 0.4 0.3 -0.2
v 0.5 0.2 -0.2
v 0.5 0.3 -0.2
v -0.5 0.5 -0.3
v -0.5 0.6 -0.3
v -0.4 0.5 -0.3
v -0.4 0.6 -0.3
v -0.3 0 -0.3
v -0.3 0.3 -0.3
v -0.2 0.1 -0.3
v -0.2 0.2 -0.3
v -0.2 0.3 -0.3
v 0.3 0.1 -0.3
v 0.3 0.2 -0.3
v 0.3 0.3 -0.3
v 0.4 0 -0.3
v 0.4 0.3 -0.3
v 0.5 0.5 -0.3
v 0.5 0.6 -0.3
v 0.6 0.5 -0.3
v 0.6 0.6 -0.3
v -0.4 0.3 -0.4
v -0.4 0.6 -0.4
v -0.3 0.3 -0.4
v -0.3 0.5 -0.4
v -0.3 0.6 -0.4
v -0.2 0.2 -0.4
v -0.2 0.3 -0.4
v 0.3 0.2 -0.4
v 0.3 0.3 -0.4
v 0.4 0.3 -0.4
v 0.4 0.5 -0.4
v 0.4 0.6 -0.4
v 0.5 0.3 -0.4
v 0.5 0.6 -0.4
v -0.5 0.6 -0.5
v -0.5 1 -0.5
v -0.4 0.6 -0.5
v -0.4 1 -0.5
v -0.3 0.5 -0.5
v -0.3 0.6 -0.5
v 0.4 0.5 -0.5
v 0.4 0.6 -0.5
v 0.5 0.6 -0.5
v 0.5 1 -0.5
v 0.6 0.6 -0.5
v 0.6 1 -0.5
v -0.3 0 0.4
v 0.4 0 0.4
v -0.2 0 0.3
v 0.3 0 0.3
v -0.2 0 -0.2
v 0.3 0 -0.2
v -0.3 0 -0.3
v 0.4 0 -0.3
v -0.2 0.2 0.5
v 0.3 0.2 0.5
v -0.2 0.2 0.4
v 0.3 0.2 0.4
v -0.4 0.2 0.3
v -0.3 0.2 0.3
v 0.4 0.2 0.3
v 0.5 0.2 0.3
v -0.4 0.2 -0.2
v -0.3 0.2 -0.2
v 0.4 0.2 -0.2
v 0.5 0.2 -0.2
v -0.2 0.2 -0.3
v 0.3 0.2 -0.3
v -0.2 0.2 -0.4
v 0.3 0.2 -0.4
v -0.4 0.3 0.5
v -0.3 0.3 0.5
v -0.2 0.3 0.5
v 0.3 0.3 0.5
v 0.4 0.3 0.5
v 0.5 0.3 0.5
v -0.4 0.3 0.4
v -0.3 0.3 0.4
v -0.2 0.3 0.4
v 0.3 0.3 0.4
v 0.4 0.3 0.4
v 0.5 0.3 0.4
v -0.4 0.3 0.3
v -0.3 0.3 0.3
v 0.4 0.3 0.3
v 0.5 0.3 0.3
v -0.4 0.3 -0.2
v -0.3 0.3 -0.2
v 0.4 0.3 -0.2
v 0.5 0.3 -0.2
v -0.4 0.3 -0.3
v -0.3 0.3 -0.3
v -0.2 0.3 -0.3
v 0.3 0.3 -0.3
v 0.4 0.3 -0.3
v 0.5 0.3 -0.3
v -0.4 0.3 -0.4
v -0.3 0.3 -0.4
v -0.2 0.3 -0.4
v 0.3 0.3 -0.4
v 0.4 0.3 -0.4
v 0.5 0.3 -0.4
v -0.3 0.5 0.6
v 0.4 0.5 0.6
v -0.3 0.5 0.5
v 0.4 0.5 0.5
v -0.5 0.5 0.4
v -0.4 0.5 0.4
v 0.5 0.5 0.4
v 0.6 0.5 0.4
v -0.5 0.5 -0.3
v -0.4 0.5 -0.3
v 0.5 0.5 -0.3
v 0.6 0.5 -0.3
v -0.3 0.5 -0.4
v 0.4 0.5 -0.4
v -0.3 0.5 -0.5
v 0.4 0.5 -0.5
v -0.5 0.6 0.6
v -0.4 0.6 0.6
v -0.3 0.6 0.6
v 0.4 0.6 0.6
v 0.5 0.6 0.6
v 0.6 0.6 0.6
v -0.5 0.6 0.5
v -0.4 0.6 0.5
v -0.3 0.6 0.5
v 0.4 0.6 0.5
v 0.5 0.6 0.5
v 0.6 0.6 0.5
v -0.5 0.6 0.4
v -0.4 0.6 0.4
v -0.3 0.6 0.4
v 0.4 0.6 0.4
v 0.5 0.6 0.4
v 0.6 0.6 0.4
v -0.5 0.6 -0.3
v -0.4 0.6 -0.3
v -0.3 0.6 -0.3
v 0.4 0.6 -0.3
v 0.5 0.6 -0.3
v 0.6 0.6 -0.3
v -0.5 0.6 -0.4
v -0.4 0.6 -0.4
v -0.3 0.6 -0.4
v 0.4 0.6 -0.4
v 0.5 0.6 -0.4
v 0.6 0.6 -0.4
v -0.5 0.6 -0.5
v -0.4 0.6 -0.5
v -0.3 0.6 -0.5
v 0.4 0.6 -0.5
v 0.5 0.6 -0.5
v 0.6 0.6 -0.5
v -0.1 0.1 0.2
v 0.2 0.1 0.2
v -0.1 0.1 -0.1
v 0.2 0.1 -0.1
v -0.2 0.2 0.3
v 0.3 0.2 0.3
v -0.1 0.2 0.2
v 0.2 0.2 0.2
v -0.1 0.2 -0.1
v 0.2 0.2 -0.1
v -0.2 0.2 -0.2
v 0.3 0.2 -0.2
v -0.3 0.4 0.4
v 0.4 0.4 0.4
v -0.2 0.4 0.3
v 0.3 0.4 0.3
v -0.2 0.4 -0.2
v 0.3 0.4 -0.2
v -0.3 0.4 -0.3
v 0.4 0.4 -0.3
v -0.4 0.9 0.5
v 0.5 0.9 0.5
v -0.2 0.9 0.4
v 0 0.9 0.4
v 0.2 0.9 0.4
v 0.3 0.9 0.4
v 0.2 0.9 0.3
v 0.3 0.9 0.3
v -0.2 0.9 0.2
v 0 0.9 0.2
v -0.1 0.9 -5.96046e-008
v 0 0.9 -5.96046e-008
v -0.1 0.9 -0.1
v 0 0.9 -0.1
v 0.2 0.9 -0.1
v 0.4 0.9 -0.1
v -0.3 0.9 -0.2
v -0.2 0.9 -0.2
v -0.3 0.9 -0.3
v -0.2 0.9 -0.3
v 0.2 0.9 -0.3
v 0.4 0.9 -0.3
v -0.4 0.9 -0.4
v 0.5 0.9 -0.4
v -0.5 1 0.6
v -0.4 1 0.6
v 0.5 1 0.6
v 0.6 1 0.6
v -0.5 1 0.5
v -0.4 1 0.5
v 0.5 1 0.5
v 0.6 1 0.5
v -0.5 1 -0.4
v -0.4 1 -0.4
v 0.5 1 -0.4
v 0.6 1 -0.4
v -0.5 1 -0.5
v -0.4 1 -0.5
v 0.5 1 -0.5
v 0.6 1 -0.5

# faces
f 5/1/1 2/1/1 1/1/1
f 6/1/1 2/1/1 5/1/1
f 9/2/1 4/2/1 3/2/1
f 10/1/1 5/1/1 4/1/1
f 10/2/1 4/2/1 9/2/1
f 10/1/1 6/1/1 5/1/1
f 10/1/1 7/1/1 6/1/1
f 11/2/1 8/2/1 7/2/1
f 11/1/1 7/1/1 10/1/1
f 12/2/1 8/2/1 11/2/1
f 17/1/1 14/1/1 13/1/1
f 18/1/1 14/1/1 17/1/1
f 21/2/1 16/2/1 15/2/1
f 21/1/1 17/1/1 16/1/1
f 21/1/1 19/1/1 18/1/1
f 21/1/1 18/1/1 17/1/1
f 22/2/1 20/2/1 19/2/1
f 22/1/1 19/1/1 21/1/1
f 23/2/1 21/2/1 15/2/1
f 24/2/1 21/2/1 23/2/1
f 25/2/1 20/2/1 22/2/1
f 26/2/1 20/2/1 25/2/1
f 29/2/1 28/2/1 27/2/1
f 30/2/1 28/2/1 29/2/1
f 31/2/1 29/2/1 27/2/1
f 31/1/1 30/1/1 29/1/1
f 32/2/1 28/2/1 30/2/1
f 32/1/1 30/1/1 31/1/1
f 33/2/1 31/2/1 27/2/1
f 34/2/1 31/2/1 33/2/1
f 35/2/1 28/2/1 32/2/1
f 36/2/1 28/2/1 35/2/1
f 41/1/1 38/1/1 37/1/1
f 42/1/1 38/1/1 41/1/1
f 43/1/1 40/1/1 39/1/1
f 44/1/1 40/1/1 43/1/1
f 49/1/1 46/1/1 45/1/1
f 50/1/1 46/1/1 49/1/1
f 51/1/1 48/1/1 47/1/1
f 52/1/1 48/1/1 51/1/1
f 55/1/1 54/1/1 53/1/1
f 56/1/1 54/1/1 55/1/1
f 59/1/1 58/1/1 57/1/1
f 60/1/1 58/1/1 59/1/1
f 63/1/1 62/1/1 61/1/1
f 64/1/1 62/1/1 63/1/1
f 67/1/1 66/1/1 65/1/1
f 68/1/1 66/1/1 67/1/1
f 69/1/2 70/1/2 71/1/2
f 71/1/2 70/1/2 72/1/2
f 73/1/2 74/1/2 75/1/2
f 75/1/2 74/1/2 76/1/2
f 77/1/2 78/1/2 79/1/2
f 79/1/2 78/1/2 80/1/2
f 81/1/2 82/1/2 83/1/2
f 83/1/2 82/1/2 84/1/2
f 85/1/2 86/1/2 89/1/2
f 89/1/2 86/1/2 90/1/2
f 87/1/2 88/1/2 91/1/2
f 91/1/2 88/1/2 92/1/2
f 93/2/2 94/2/2 95/2/2
f 95/2/2 94/2/2 96/2/2
f 93/2/2 95/2/2 97/2/2
f 95/1/2 96/1/2 97/1/2
f 96/2/2 94/2/2 98/2/2
f 97/1/2 96/1/2 98/1/2
f 93/2/2 97/2/2 99/2/2
f 99/2/2 97/2/2 100/2/2
f 98/2/2 94/2/2 101/2/2
f 101/2/2 94/2/2 102/2/2
f 103/1/2 104/1/2 107/1/2
f 107/1/2 104/1/2 108/1/2
f 105/1/2 106/1/2 109/1/2
f 109/1/2 106/1/2 110/1/2
f 111/1/2 112/1/2 115/1/2
f 115/1/2 112/1/2 116/1/2
f 113/2/2 114/2/2 119/2/2
f 114/1/2 115/1/2 119/1/2
f 116/1/2 117/1/2 119/1/2
f 115/1/2 116/1/2 119/1/2
f 117/2/2 118/2/2 120/2/2
f 119/1/2 117/1/2 120/1/2
f 113/2/2 119/2/2 121/2/2
f 121/2/2 119/2/2 122/2/2
f 120/2/2 118/2/2 123/2/2
f 123/2/2 118/2/2 124/2/2
f 125/1/2 126/1/2 129/1/2
f 129/1/2 126/1/2 130/1/2
f 127/2/2 128/2/2 133/2/2
f 128/1/2 129/1/2 134/1/2
f 133/2/2 128/2/2 134/2/2
f 129/1/2 130/1/2 134/1/2
f 130/1/2 131/1/2 134/1/2
f 131/2/2 132/2/2 135/2/2
f 134/1/2 131/1/2 135/1/2
f 135/2/2 132/2/2 136/2/2
f 139/2/3 138/2/3 137/2/3
f 140/2/3 138/2/3 139/2/3
f 142/1/3 140/1/3 139/1/3
f 143/1/3 142/1/3 141/1/3
f 144/1/3 140/1/3 142/1/3
f 144/1/3 142/1/3 143/1/3
f 145/1/3 140/1/3 144/1/3
f 146/1/3 140/1/3 145/1/3
f 147/2/3 146/2/3 145/2/3
f 148/2/3 146/2/3 147/2/3
f 151/2/3 150/2/3 149/2/3
f 152/2/3 150/2/3 151/2/3
f 153/2/3 150/2/3 152/2/3
f 155/1/3 152/1/3 151/1/3
f 156/1/3 155/1/3 154/1/3
f 157/1/3 152/1/3 155/1/3
f 157/1/3 155/1/3 156/1/3
f 158/1/3 152/1/3 157/1/3
f 159/1/3 152/1/3 158/1/3
f 161/2/3 159/2/3 158/2/3
f 161/2/3 160/2/3 159/2/3
f 162/2/3 160/2/3 161/2/3
f 165/1/3 164/1/3 163/1/3
f 166/1/3 164/1/3 165/1/3
f 169/2/3 168/2/3 167/2/3
f 170/2/3 168/2/3 169/2/3
f 171/2/3 168/2/3 170/2/3
f 172/2/3 169/2/3 167/2/3
f 172/1/3 170/1/3 169/1/3
f 173/1/3 170/1/3 172/1/3
f 175/2/3 172/2/3 167/2/3
f 175/2/3 174/2/3 173/2/3
f 175/2/3 173/2/3 172/2/3
f 176/2/3 174/2/3 175/2/3
f 179/1/3 178/1/3 177/1/3
f 180/1/3 178/1/3 179/1/3
f 183/1/3 182/1/3 181/1/3
f 184/1/3 182/1/3 183/1/3
f 187/1/3 186/1/3 185/1/3
f 188/1/3 186/1/3 187/1/3
f 191/1/3 190/1/3 189/1/3
f 192/1/3 190/1/3 191/1/3
f 195/1/3 194/1/3 193/1/3
f 196/1/3 194/1/3 195/1/3
f 199/1/3 198/1/3 197/1/3
f 200/1/3 198/1/3 199/1/3
f 203/1/3 202/1/3 201/1/3
f 204/1/3 202/1/3 203/1/3
f 205/1/4 206/1/4 207/1/4
f 207/1/4 206/1/4 208/1/4
f 209/1/4 210/1/4 211/1/4
f 211/1/4 210/1/4 212/1/4
f 213/1/4 214/1/4 215/1/4
f 215/1/4 214/1/4 216/1/4
f 217/1/4 218/1/4 219/1/4
f 219/1/4 218/1/4 220/1/4
f 221/1/4 222/1/4 223/1/4
f 223/1/4 222/1/4 224/1/4
f 225/1/4 226/1/4 227/1/4
f 227/1/4 226/1/4 228/1/4
f 229/1/4 230/1/4 231/1/4
f 231/1/4 230/1/4 232/1/4
f 233/2/4 234/2/4 235/2/4
f 235/2/4 234/2/4 236/2/4
f 236/2/4 234/2/4 237/2/4
f 233/2/4 235/2/4 238/2/4
f 235/1/4 236/1/4 238/1/4
f 238/1/4 236/1/4 239/1/4
f 233/2/4 238/2/4 241/2/4
f 239/2/4 240/2/4 241/2/4
f 238/2/4 239/2/4 241/2/4
f 241/2/4 240/2/4 242/2/4
f 243/1/4 244/1/4 245/1/4
f 245/1/4 244/1/4 246/1/4
f 247/2/4 248/2/4 249/2/4
f 249/2/4 248/2/4 250/2/4
f 250/2/4 248/2/4 251/2/4
f 249/1/4 250/1/4 253/1/4
f 252/1/4 253/1/4 254/1/4
f 253/1/4 250/1/4 255/1/4
f 254/1/4 253/1/4 255/1/4
f 255/1/4 250/1/4 256/1/4
f 256/1/4 250/1/4 257/1/4
f 256/2/4 257/2/4 259/2/4
f 257/2/4 258/2/4 259/2/4
f 259/2/4 258/2/4 260/2/4
f 261/2/4 262/2/4 263/2/4
f 263/2/4 262/2/4 264/2/4
f 263/1/4 264/1/4 266/1/4
f 265/1/4 266/1/4 267/1/4
f 266/1/4 264/1/4 268/1/4
f 267/1/4 266/1/4 268/1/4
f 268/1/4 264/1/4 269/1/4
f 269/1/4 264/1/4 270/1/4
f 269/2/4 270/2/4 271/2/4
f 271/2/4 270/2/4 272/2/4
f 275/2/5 274/2/5 273/2/5
f 276/2/5 274/2/5 275/2/5
f 277/2/5 275/2/5 273/2/5
f 277/1/5 276/1/5 275/1/5
f 278/2/5 274/2/5 276/2/5
f 278/1/5 276/1/5 277/1/5
f 279/2/5 277/2/5 273/2/5
f 279/2/5 278/2/5 277/2/5
f 280/2/5 274/2/5 278/2/5
f 280/2/5 278/2/5 279/2/5
f 283/1/5 282/1/5 281/1/5
f 284/1/5 282/1/5 283/1/5
f 289/1/5 286/1/5 285/1/5
f 290/1/5 286/1/5 289/1/5
f 291/1/5 288/1/5 287/1/5
f 292/1/5 288/1/5 291/1/5
f 295/1/5 294/1/5 293/1/5
f 296/1/5 294/1/5 295/1/5
f 303/2/5 298/2/5 297/2/5
f 304/1/5 299/1/5 298/1/5
f 304/2/5 298/2/5 303/2/5
f 305/1/5 299/1/5 304/1/5
f 306/1/5 301/1/5 300/1/5
f 307/2/5 302/2/5 301/2/5
f 307/1/5 301/1/5 306/1/5
f 308/2/5 302/2/5 307/2/5
f 309/1/5 304/1/5 303/1/5
f 310/1/5 304/1/5 309/1/5
f 311/1/5 308/1/5 307/1/5
f 312/1/5 308/1/5 311/1/5
f 317/1/5 314/1/5 313/1/5
f 318/1/5 314/1/5 317/1/5
f 321/1/5 316/1/5 315/1/5
f 322/1/5 316/1/5 321/1/5
f 323/2/5 318/2/5 317/2/5
f 324/1/5 319/1/5 318/1/5
f 324/2/5 318/2/5 323/2/5
f 325/1/5 319/1/5 324/1/5
f 326/1/5 321/1/5 320/1/5
f 327/2/5 322/2/5 321/2/5
f 327/1/5 321/1/5 326/1/5
f 328/2/5 322/2/5 327/2/5
f 331/1/5 330/1/5 329/1/5
f 332/1/5 330/1/5 331/1/5
f 337/1/5 334/1/5 333/1/5
f 338/1/5 334/1/5 337/1/5
f 339/1/5 336/1/5 335/1/5
f 340/1/5 336/1/5 339/1/5
f 343/1/5 342/1/5 341/1/5
f 344/1/5 342/1/5 343/1/5
f 351/2/5 346/2/5 345/2/5
f 352/1/5 347/1/5 346/1/5
f 352/2/5 346/2/5 351/2/5
f 353/1/5 347/1/5 352/1/5
f 354/1/5 349/1/5 348/1/5
f 355/2/5 350/2/5 349/2/5
f 355/1/5 349/1/5 354/1/5
f 356/2/5 350/2/5 355/2/5
f 357/1/5 352/1/5 351/1/5
f 358/1/5 352/1/5 357/1/5
f 361/1/5 356/1/5 355/1/5
f 362/1/5 356/1/5 361/1/5
f 365/3/5 360/3/5 359/3/5
f 366/3/5 360/3/5 365/3/5
f 369/1/5 364/1/5 363/1/5
f 370/1/5 364/1/5 369/1/5
f 373/1/5 368/1/5 367/1/5
f 374/1/5 368/1/5 373/1/5
f 375/2/5 370/2/5 369/2/5
f 376/1/5 371/1/5 370/1/5
f 376/2/5 370/2/5 375/2/5
f 377/1/5 371/1/5 376/1/5
f 378/1/5 373/1/5 372/1/5
f 379/2/5 374/2/5 373/2/5
f 379/1/5 373/1/5 378/1/5
f 380/2/5 374/2/5 379/2/5
f 381/1/6 382/1/6 383/1/6
f 383/1/6 382/1/6 384/1/6
f 385/1/6 386/1/6 387/1/6
f 387/1/6 386/1/6 388/1/6
f 385/1/6 387/1/6 389/1/6
f 388/1/6 386/1/6 390/1/6
f 385/1/6 389/1/6 391/1/6
f 389/1/6 390/1/6 391/1/6
f 390/1/6 386/1/6 392/1/6
f 391/1/6 390/1/6 392/1/6
f 393/1/6 394/1/6 395/1/6
f 395/1/6 394/1/6 396/1/6
f 393/1/6 395/1/6 397/1/6
f 396/1/6 394/1/6 398/1/6
f 393/1/6 397/1/6 399/1/6
f 397/1/6 398/1/6 399/1/6
f 398/1/6 394/1/6 400/1/6
f 399/1/6 398/1/6 400/1/6
f 401/3/6 402/3/6 403/3/6
f 403/3/6 402/3/6 404/3/6
f 404/3/6 402/3/6 405/3/6
f 405/3/6 402/3/6 406/3/6
f 404/3/6 405/3/6 407/3/6
f 405/2/6 406/2/6 407/2/6
f 406/3/6 402/3/6 408/3/6
f 407/2/6 406/2/6 408/2/6
f 401/3/6 403/3/6 409/3/6
f 403/2/6 404/2/6 409/2/6
f 407/3/6 408/3/6 410/3/6
f 409/2/6 404/2/6 410/2/6
f 404/3/6 407/3/6 410/3/6
f 409/3/6 410/3/6 411/3/6
f 410/3/6 408/3/6 412/3/6
f 411/3/6 410/3/6 412/3/6
f 409/3/6 411/3/6 413/3/6
f 411/2/6 412/2/6 413/2/6
f 412/3/6 408/3/6 414/3/6
f 413/2/6 412/2/6 414/2/6
f 414/3/6 408/3/6 415/3/6
f 408/3/6 402/3/6 416/3/6
f 415/3/6 408/3/6 416/3/6
f 414/3/6 415/3/6 417/3/6
f 401/3/6 409/3/6 417/3/6
f 409/3/6 413/3/6 417/3/6
f 413/3/6 414/3/6 417/3/6
f 417/3/6 415/3/6 418/3/6
f 401/3/6 417/3/6 419/3/6
f 417/2/6 418/2/6 419/2/6
f 418/3/6 415/3/6 420/3/6
f 419/2/6 418/2/6 420/2/6
f 415/2/6 416/2/6 421/2/6
f 420/3/6 415/3/6 421/3/6
f 416/3/6 402/3/6 422/3/6
f 421/2/6 416/2/6 422/2/6
f 420/3/6 421/3/6 423/3/6
f 419/3/6 420/3/6 423/3/6
f 421/3/6 422/3/6 423/3/6
f 401/3/6 419/3/6 423/3/6
f 422/3/6 402/3/6 424/3/6
f 423/3/6 422/3/6 424/3/6
f 425/2/6 426/2/6 429/2/6
f 426/1/6 427/1/6 430/1/6
f 429/2/6 426/2/6 430/2/6
f 427/2/6 428/2/6 431/2/6
f 430/1/6 427/1/6 431/1/6
f 431/2/6 428/2/6 432/2/6
f 429/1/6 430/1/6 433/1/6
f 433/1/6 430/1/6 434/1/6
f 431/1/6 432/1/6 435/1/6
f 435/1/6 432/1/6 436/1/6
f 433/2/6 434/2/6 437/2/6
f 434/1/6 435/1/6 438/1/6
f 437/2/6 434/2/6 438/2/6
f 435/2/6 436/2/6 439/2/6
f 438/1/6 435/1/6 439/1/6
f 439/2/6 436/2/6 440/2/6
