# MagicaVoxel @ Ephtracy

# group
o 

# material
mtllib table.mtl
usemtl palette

# normals
vn -1 0 0
vn 1 0 0
vn 0 0 1
vn 0 0 -1
vn 0 -1 0
vn 0 1 0

# texcoords
vt 0.537109 0.5
vt 0.876953 0.5

# verts
v -2 0 2
v -2 0 1.8
v -2 0 -1.8
v -2 0 -2
v -2 2.2 1.8
v -2 2.2 -1.8
v -2 2.3 1.7
v -2 2.3 1.6
v -2 2.3 1.3
v -2 2.3 1.2
v -2 2.3 0.9
v -2 2.3 0.8
v -2 2.3 0.5
v -2 2.3 0.4
v -2 2.3 0.0999999
v -2 2.3 -2.38419e-007
v -2 2.3 -0.3
v -2 2.3 -0.4
v -2 2.3 -0.7
v -2 2.3 -0.8
v -2 2.3 -1.1
v -2 2.3 -1.2
v -2 2.3 -1.5
v -2 2.3 -1.6
v -2 2.4 2
v -2 2.4 1.7
v -2 2.4 1.6
v -2 2.4 1.3
v -2 2.4 1.2
v -2 2.4 0.9
v -2 2.4 0.8
v -2 2.4 0.5
v -2 2.4 0.4
v -2 2.4 0.0999999
v -2 2.4 -2.38419e-007
v -2 2.4 -0.3
v -2 2.4 -0.4
v -2 2.4 -0.7
v -2 2.4 -0.8
v -2 2.4 -1.1
v -2 2.4 -1.2
v -2 2.4 -1.5
v -2 2.4 -1.6
v -2 2.4 -2
v -1.9 2.1 1.8
v -1.9 2.1 -1.8
v -1.9 2.2 1.8
v -1.9 2.2 -1.8
v 1.8 0 2
v 1.8 0 1.7
v 1.8 0 -1.7
v 1.8 0 -2
v 1.8 2.1 1.9
v 1.8 2.1 1.7
v 1.8 2.1 -1.7
v 1.8 2.1 -1.9
v 1.8 2.2 2
v 1.8 2.2 1.9
v 1.8 2.2 -1.9
v 1.8 2.2 -2
v -1.8 0 -1.9
v -1.8 0 -2
v -1.8 2.2 -1.9
v -1.8 2.2 -2
v -1.7 0 2
v -1.7 0 1.8
v -1.7 0 -1.8
v -1.7 0 -1.9
v -1.7 2.1 1.9
v -1.7 2.1 1.8
v -1.7 2.1 -1.8
v -1.7 2.1 -1.9
v -1.7 2.2 2
v -1.7 2.2 1.9
v 1.9 2.1 1.7
v 1.9 2.1 -1.7
v 1.9 2.2 1.7
v 1.9 2.2 -1.7
v 2 0 2
v 2 0 1.7
v 2 0 -1.7
v 2 0 -2
v 2 2.2 1.7
v 2 2.2 -1.7
v 2 2.3 1.7
v 2 2.3 1.6
v 2 2.3 1.3
v 2 2.3 1.2
v 2 2.3 0.9
v 2 2.3 0.8
v 2 2.3 0.5
v 2 2.3 0.4
v 2 2.3 0.0999999
v 2 2.3 -2.38419e-007
v 2 2.3 -0.3
v 2 2.3 -0.4
v 2 2.3 -0.7
v 2 2.3 -0.8
v 2 2.3 -1.1
v 2 2.3 -1.2
v 2 2.3 -1.5
v 2 2.3 -1.6
v 2 2.4 2
v 2 2.4 1.7
v 2 2.4 1.6
v 2 2.4 1.3
v 2 2.4 1.2
v 2 2.4 0.9
v 2 2.4 0.8
v 2 2.4 0.5
v 2 2.4 0.4
v 2 2.4 0.0999999
v 2 2.4 -2.38419e-007
v 2 2.4 -0.3
v 2 2.4 -0.4
v 2 2.4 -0.7
v 2 2.4 -0.8
v 2 2.4 -1.1
v 2 2.4 -1.2
v 2 2.4 -1.5
v 2 2.4 -1.6
v 2 2.4 -2
v -2 0 2
v -2 2.4 2
v -1.7 0 2
v -1.7 2.2 2
v 1.8 0 2
v 1.8 2.2 2
v 2 0 2
v 2 2.4 2
v -1.7 2.1 1.9
v -1.7 2.2 1.9
v 1.8 2.1 1.9
v 1.8 2.2 1.9
v 1.8 0 -1.7
v 1.8 2.1 -1.7
v 1.9 2.1 -1.7
v 1.9 2.2 -1.7
v 2 0 -1.7
v 2 2.2 -1.7
v -2 0 -1.8
v -2 2.2 -1.8
v -1.9 2.1 -1.8
v -1.9 2.2 -1.8
v -1.7 0 -1.8
v -1.7 2.1 -1.8
v -2 0 1.8
v -2 2.2 1.8
v -1.9 2.1 1.8
v -1.9 2.2 1.8
v -1.7 0 1.8
v -1.7 2.1 1.8
v 1.8 0 1.7
v 1.8 2.1 1.7
v 1.9 2.1 1.7
v 1.9 2.2 1.7
v 2 0 1.7
v 2 2.2 1.7
v -1.8 0 -1.9
v -1.8 2.2 -1.9
v -1.7 0 -1.9
v -1.7 2.1 -1.9
v 1.8 2.1 -1.9
v 1.8 2.2 -1.9
v -2 0 -2
v -2 2.4 -2
v -1.8 0 -2
v -1.8 2.2 -2
v 1.8 0 -2
v 1.8 2.2 -2
v 2 0 -2
v 2 2.4 -2
v -2 0 2
v -1.7 0 2
v 1.8 0 2
v 2 0 2
v -2 0 1.8
v -1.7 0 1.8
v 1.8 0 1.7
v 2 0 1.7
v 1.8 0 -1.7
v 2 0 -1.7
v -2 0 -1.8
v -1.7 0 -1.8
v -1.8 0 -1.9
v -1.7 0 -1.9
v -2 0 -2
v -1.8 0 -2
v 1.8 0 -2
v 2 0 -2
v -1.7 2.1 1.9
v 1.8 2.1 1.9
v -1.9 2.1 1.8
v -1.7 2.1 1.8
v 1.8 2.1 1.7
v 1.9 2.1 1.7
v 1.8 2.1 -1.7
v 1.9 2.1 -1.7
v -1.9 2.1 -1.8
v -1.7 2.1 -1.8
v -1.7 2.1 -1.9
v 1.8 2.1 -1.9
v -1.7 2.2 2
v 1.8 2.2 2
v -1.7 2.2 1.9
v 1.8 2.2 1.9
v -2 2.2 1.8
v -1.9 2.2 1.8
v 1.9 2.2 1.7
v 2 2.2 1.7
v 1.9 2.2 -1.7
v 2 2.2 -1.7
v -2 2.2 -1.8
v -1.9 2.2 -1.8
v -1.8 2.2 -1.9
v 1.8 2.2 -1.9
v -1.8 2.2 -2
v 1.8 2.2 -2
v -2 2.4 2
v 2 2.4 2
v -2 2.4 1.7
v 2 2.4 1.7
v -2 2.4 1.6
v 2 2.4 1.6
v -2 2.4 1.3
v 2 2.4 1.3
v -2 2.4 1.2
v 2 2.4 1.2
v -2 2.4 0.9
v 2 2.4 0.9
v -2 2.4 0.8
v 2 2.4 0.8
v -2 2.4 0.5
v 2 2.4 0.5
v -2 2.4 0.4
v 2 2.4 0.4
v -2 2.4 0.0999999
v 2 2.4 0.0999999
v -2 2.4 -2.38419e-007
v 2 2.4 -2.38419e-007
v -2 2.4 -0.3
v 2 2.4 -0.3
v -2 2.4 -0.4
v 2 2.4 -0.4
v -2 2.4 -0.7
v 2 2.4 -0.7
v -2 2.4 -0.8
v 2 2.4 -0.8
v -2 2.4 -1.1
v 2 2.4 -1.1
v -2 2.4 -1.2
v 2 2.4 -1.2
v -2 2.4 -1.5
v 2 2.4 -1.5
v -2 2.4 -1.6
v 2 2.4 -1.6
v -2 2.4 -2
v 2 2.4 -2

# faces
f 5/1/1 2/1/1 1/1/1
f 6/1/1 4/1/1 3/1/1
f 7/1/1 6/1/1 5/1/1
f 8/1/1 6/1/1 7/1/1
f 9/1/1 6/1/1 8/1/1
f 10/1/1 6/1/1 9/1/1
f 11/1/1 6/1/1 10/1/1
f 12/1/1 6/1/1 11/1/1
f 13/1/1 6/1/1 12/1/1
f 14/1/1 6/1/1 13/1/1
f 15/1/1 6/1/1 14/1/1
f 16/1/1 6/1/1 15/1/1
f 17/1/1 6/1/1 16/1/1
f 18/1/1 6/1/1 17/1/1
f 19/1/1 6/1/1 18/1/1
f 20/1/1 6/1/1 19/1/1
f 21/1/1 6/1/1 20/1/1
f 22/1/1 6/1/1 21/1/1
f 23/1/1 6/1/1 22/1/1
f 24/1/1 6/1/1 23/1/1
f 25/1/1 5/1/1 1/1/1
f 25/1/1 7/1/1 5/1/1
f 26/2/1 8/2/1 7/2/1
f 26/1/1 7/1/1 25/1/1
f 27/1/1 9/1/1 8/1/1
f 27/2/1 8/2/1 26/2/1
f 28/2/1 10/2/1 9/2/1
f 28/1/1 9/1/1 27/1/1
f 29/1/1 11/1/1 10/1/1
f 29/2/1 10/2/1 28/2/1
f 30/2/1 12/2/1 11/2/1
f 30/1/1 11/1/1 29/1/1
f 31/1/1 13/1/1 12/1/1
f 31/2/1 12/2/1 30/2/1
f 32/2/1 14/2/1 13/2/1
f 32/1/1 13/1/1 31/1/1
f 33/1/1 15/1/1 14/1/1
f 33/2/1 14/2/1 32/2/1
f 34/2/1 16/2/1 15/2/1
f 34/1/1 15/1/1 33/1/1
f 35/1/1 17/1/1 16/1/1
f 35/2/1 16/2/1 34/2/1
f 36/2/1 18/2/1 17/2/1
f 36/1/1 17/1/1 35/1/1
f 37/1/1 19/1/1 18/1/1
f 37/2/1 18/2/1 36/2/1
f 38/2/1 20/2/1 19/2/1
f 38/1/1 19/1/1 37/1/1
f 39/1/1 21/1/1 20/1/1
f 39/2/1 20/2/1 38/2/1
f 40/2/1 22/2/1 21/2/1
f 40/1/1 21/1/1 39/1/1
f 41/1/1 23/1/1 22/1/1
f 41/2/1 22/2/1 40/2/1
f 42/2/1 24/2/1 23/2/1
f 42/1/1 23/1/1 41/1/1
f 43/1/1 6/1/1 24/1/1
f 43/2/1 24/2/1 42/2/1
f 44/1/1 4/1/1 6/1/1
f 44/1/1 6/1/1 43/1/1
f 47/1/1 46/1/1 45/1/1
f 48/1/1 46/1/1 47/1/1
f 53/1/1 50/1/1 49/1/1
f 54/1/1 50/1/1 53/1/1
f 55/1/1 52/1/1 51/1/1
f 56/1/1 52/1/1 55/1/1
f 57/1/1 53/1/1 49/1/1
f 58/1/1 53/1/1 57/1/1
f 59/1/1 52/1/1 56/1/1
f 60/1/1 52/1/1 59/1/1
f 61/1/2 62/1/2 63/1/2
f 63/1/2 62/1/2 64/1/2
f 65/1/2 66/1/2 69/1/2
f 69/1/2 66/1/2 70/1/2
f 67/1/2 68/1/2 71/1/2
f 71/1/2 68/1/2 72/1/2
f 65/1/2 69/1/2 73/1/2
f 73/1/2 69/1/2 74/1/2
f 75/1/2 76/1/2 77/1/2
f 77/1/2 76/1/2 78/1/2
f 79/1/2 80/1/2 83/1/2
f 81/1/2 82/1/2 84/1/2
f 79/1/2 83/1/2 85/1/2
f 83/1/2 84/1/2 85/1/2
f 85/1/2 84/1/2 86/1/2
f 86/1/2 84/1/2 87/1/2
f 87/1/2 84/1/2 88/1/2
f 88/1/2 84/1/2 89/1/2
f 89/1/2 84/1/2 90/1/2
f 90/1/2 84/1/2 91/1/2
f 91/1/2 84/1/2 92/1/2
f 92/1/2 84/1/2 93/1/2
f 93/1/2 84/1/2 94/1/2
f 94/1/2 84/1/2 95/1/2
f 95/1/2 84/1/2 96/1/2
f 96/1/2 84/1/2 97/1/2
f 97/1/2 84/1/2 98/1/2
f 98/1/2 84/1/2 99/1/2
f 99/1/2 84/1/2 100/1/2
f 100/1/2 84/1/2 101/1/2
f 101/1/2 84/1/2 102/1/2
f 79/1/2 85/1/2 103/1/2
f 85/2/2 86/2/2 104/2/2
f 103/1/2 85/1/2 104/1/2
f 86/1/2 87/1/2 105/1/2
f 104/2/2 86/2/2 105/2/2
f 87/2/2 88/2/2 106/2/2
f 105/1/2 87/1/2 106/1/2
f 88/1/2 89/1/2 107/1/2
f 106/2/2 88/2/2 107/2/2
f 89/2/2 90/2/2 108/2/2
f 107/1/2 89/1/2 108/1/2
f 90/1/2 91/1/2 109/1/2
f 108/2/2 90/2/2 109/2/2
f 91/2/2 92/2/2 110/2/2
f 109/1/2 91/1/2 110/1/2
f 92/1/2 93/1/2 111/1/2
f 110/2/2 92/2/2 111/2/2
f 93/2/2 94/2/2 112/2/2
f 111/1/2 93/1/2 112/1/2
f 94/1/2 95/1/2 113/1/2
f 112/2/2 94/2/2 113/2/2
f 95/2/2 96/2/2 114/2/2
f 113/1/2 95/1/2 114/1/2
f 96/1/2 97/1/2 115/1/2
f 114/2/2 96/2/2 115/2/2
f 97/2/2 98/2/2 116/2/2
f 115/1/2 97/1/2 116/1/2
f 98/1/2 99/1/2 117/1/2
f 116/2/2 98/2/2 117/2/2
f 99/2/2 100/2/2 118/2/2
f 117/1/2 99/1/2 118/1/2
f 100/1/2 101/1/2 119/1/2
f 118/2/2 100/2/2 119/2/2
f 101/2/2 102/2/2 120/2/2
f 119/1/2 101/1/2 120/1/2
f 102/1/2 84/1/2 121/1/2
f 120/2/2 102/2/2 121/2/2
f 84/1/2 82/1/2 122/1/2
f 121/1/2 84/1/2 122/1/2
f 125/1/3 124/1/3 123/1/3
f 126/1/3 124/1/3 125/1/3
f 128/1/3 124/1/3 126/1/3
f 129/1/3 128/1/3 127/1/3
f 130/1/3 124/1/3 128/1/3
f 130/1/3 128/1/3 129/1/3
f 133/1/3 132/1/3 131/1/3
f 134/1/3 132/1/3 133/1/3
f 137/1/3 136/1/3 135/1/3
f 139/1/3 137/1/3 135/1/3
f 139/1/3 138/1/3 137/1/3
f 140/1/3 138/1/3 139/1/3
f 143/1/3 142/1/3 141/1/3
f 144/1/3 142/1/3 143/1/3
f 145/1/3 143/1/3 141/1/3
f 146/1/3 143/1/3 145/1/3
f 147/1/4 148/1/4 149/1/4
f 149/1/4 148/1/4 150/1/4
f 147/1/4 149/1/4 151/1/4
f 151/1/4 149/1/4 152/1/4
f 153/1/4 154/1/4 155/1/4
f 153/1/4 155/1/4 157/1/4
f 155/1/4 156/1/4 157/1/4
f 157/1/4 156/1/4 158/1/4
f 159/1/4 160/1/4 161/1/4
f 161/1/4 160/1/4 162/1/4
f 162/1/4 160/1/4 163/1/4
f 163/1/4 160/1/4 164/1/4
f 165/1/4 166/1/4 167/1/4
f 167/1/4 166/1/4 168/1/4
f 168/1/4 166/1/4 170/1/4
f 169/1/4 170/1/4 171/1/4
f 170/1/4 166/1/4 172/1/4
f 171/1/4 170/1/4 172/1/4
f 177/1/5 174/1/5 173/1/5
f 178/1/5 174/1/5 177/1/5
f 179/1/5 176/1/5 175/1/5
f 180/1/5 176/1/5 179/1/5
f 185/1/5 184/1/5 183/1/5
f 186/1/5 184/1/5 185/1/5
f 187/1/5 185/1/5 183/1/5
f 188/1/5 185/1/5 187/1/5
f 189/1/5 182/1/5 181/1/5
f 190/1/5 182/1/5 189/1/5
f 194/1/5 192/1/5 191/1/5
f 195/1/5 192/1/5 194/1/5
f 195/1/5 194/1/5 193/1/5
f 197/1/5 195/1/5 193/1/5
f 197/1/5 196/1/5 195/1/5
f 198/1/5 196/1/5 197/1/5
f 199/1/5 197/1/5 193/1/5
f 200/1/5 197/1/5 199/1/5
f 201/1/5 197/1/5 200/1/5
f 202/1/5 197/1/5 201/1/5
f 205/1/5 204/1/5 203/1/5
f 206/1/5 204/1/5 205/1/5
f 211/1/5 210/1/5 209/1/5
f 212/1/5 210/1/5 211/1/5
f 213/1/5 208/1/5 207/1/5
f 214/1/5 208/1/5 213/1/5
f 217/1/5 216/1/5 215/1/5
f 218/1/5 216/1/5 217/1/5
f 219/1/6 220/1/6 221/1/6
f 221/1/6 220/1/6 222/1/6
f 221/2/6 222/2/6 223/2/6
f 223/2/6 222/2/6 224/2/6
f 223/1/6 224/1/6 225/1/6
f 225/1/6 224/1/6 226/1/6
f 225/2/6 226/2/6 227/2/6
f 227/2/6 226/2/6 228/2/6
f 227/1/6 228/1/6 229/1/6
f 229/1/6 228/1/6 230/1/6
f 229/2/6 230/2/6 231/2/6
f 231/2/6 230/2/6 232/2/6
f 231/1/6 232/1/6 233/1/6
f 233/1/6 232/1/6 234/1/6
f 233/2/6 234/2/6 235/2/6
f 235/2/6 234/2/6 236/2/6
f 235/1/6 236/1/6 237/1/6
f 237/1/6 236/1/6 238/1/6
f 237/2/6 238/2/6 239/2/6
f 239/2/6 238/2/6 240/2/6
f 239/1/6 240/1/6 241/1/6
f 241/1/6 240/1/6 242/1/6
f 241/2/6 242/2/6 243/2/6
f 243/2/6 242/2/6 244/2/6
f 243/1/6 244/1/6 245/1/6
f 245/1/6 244/1/6 246/1/6
f 245/2/6 246/2/6 247/2/6
f 247/2/6 246/2/6 248/2/6
f 247/1/6 248/1/6 249/1/6
f 249/1/6 248/1/6 250/1/6
f 249/2/6 250/2/6 251/2/6
f 251/2/6 250/2/6 252/2/6
f 251/1/6 252/1/6 253/1/6
f 253/1/6 252/1/6 254/1/6
f 253/2/6 254/2/6 255/2/6
f 255/2/6 254/2/6 256/2/6
f 255/1/6 256/1/6 257/1/6
f 257/1/6 256/1/6 258/1/6
